<?xml version="1.0" encoding="iso-8859-1"?>
<!-- Generator: Adobe Illustrator 19.0.0, SVG Export Plug-In . SVG Version: 6.00 Build 0)  -->
<svg version="1.1" id="Layer_1" xmlns="http://www.w3.org/2000/svg" xmlns:xlink="http://www.w3.org/1999/xlink" x="0px" y="0px"
	 viewBox="0 0 509.966 509.966" style="enable-background:new 0 0 509.966 509.966;" xml:space="preserve">
<circle style="fill:#F0582F;" cx="254.983" cy="254.983" r="254.644"/>
<path style="fill:#4F5565;" d="M333.309,265.155h175.979c0-3.391,0.339-6.781,0.339-10.172s0-6.781-0.339-10.172H333.309
	c3.052-72.562,37.637-136.985,90.871-180.048c-5.086-4.747-10.511-8.816-15.936-13.224
	c-55.947,46.453-92.228,115.624-95.279,192.932h-47.809V0.339c-3.391,0-6.781-0.339-10.172-0.339c-3.391,0-6.781,0-10.172,0.339
	v244.132h-47.809c-3.052-77.648-39.332-146.479-95.279-192.932c-5.425,4.069-10.85,8.477-15.936,13.224
	c52.895,42.723,87.82,107.486,90.872,180.048H0.678c0,3.391-0.339,6.781-0.339,10.172s0,6.781,0.339,10.172h175.979
	c-3.052,72.562-37.637,136.985-90.872,180.048c5.086,4.747,10.511,8.816,15.936,13.224c55.947-46.453,92.228-115.624,95.279-192.932
	h47.809v244.132c3.391,0,6.781,0.339,10.172,0.339c3.391,0,6.781,0,10.172-0.339V265.494h47.809
	c3.052,77.648,39.332,146.479,95.279,192.932c5.425-4.069,10.85-8.477,15.936-13.224C371.285,402.14,336.36,337.717,333.309,265.155
	z"/>
<g>
</g>
<g>
</g>
<g>
</g>
<g>
</g>
<g>
</g>
<g>
</g>
<g>
</g>
<g>
</g>
<g>
</g>
<g>
</g>
<g>
</g>
<g>
</g>
<g>
</g>
<g>
</g>
<g>
</g>
</svg>
